<mxfile host="app.diagrams.net" modified="2021-08-28T02:46:22.192Z" agent="5.0 (X11; Linux x86_64) AppleWebKit/537.36 (KHTML, like Gecko) Chrome/92.0.4515.159 Safari/537.36" etag="FUg78me8kO8OlHO3si4B" version="14.9.9" type="github">
  <diagram id="C5RBs43oDa-KdzZeNtuy" name="Page-1">
    <mxGraphModel dx="2692" dy="545" grid="1" gridSize="10" guides="1" tooltips="1" connect="1" arrows="1" fold="1" page="1" pageScale="1" pageWidth="827" pageHeight="1169" math="0" shadow="0">
      <root>
        <mxCell id="WIyWlLk6GJQsqaUBKTNV-0" />
        <mxCell id="WIyWlLk6GJQsqaUBKTNV-1" parent="WIyWlLk6GJQsqaUBKTNV-0" />
        <mxCell id="zkfFHV4jXpPFQw0GAbJ--0" value="User" style="swimlane;fontStyle=2;align=center;verticalAlign=top;childLayout=stackLayout;horizontal=1;startSize=26;horizontalStack=0;resizeParent=1;resizeLast=0;collapsible=1;marginBottom=0;rounded=0;shadow=0;strokeWidth=1;fillColor=#fff2cc;strokeColor=#d6b656;" parent="WIyWlLk6GJQsqaUBKTNV-1" vertex="1">
          <mxGeometry x="-15" y="150" width="160" height="232" as="geometry">
            <mxRectangle x="230" y="140" width="160" height="26" as="alternateBounds" />
          </mxGeometry>
        </mxCell>
        <mxCell id="zkfFHV4jXpPFQw0GAbJ--4" value="" style="line;html=1;strokeWidth=1;align=left;verticalAlign=middle;spacingTop=-1;spacingLeft=3;spacingRight=3;rotatable=0;labelPosition=right;points=[];portConstraint=eastwest;fillColor=#fff2cc;strokeColor=#d6b656;" parent="zkfFHV4jXpPFQw0GAbJ--0" vertex="1">
          <mxGeometry y="26" width="160" height="206" as="geometry" />
        </mxCell>
        <mxCell id="0kyeVdW8HTEz_GP9G8ct-1" value="Customer&lt;br&gt;Employee&lt;br&gt;Admin" style="text;html=1;strokeColor=none;fillColor=none;align=center;verticalAlign=middle;whiteSpace=wrap;rounded=0;" parent="WIyWlLk6GJQsqaUBKTNV-1" vertex="1">
          <mxGeometry x="30" y="825" width="110" height="60" as="geometry" />
        </mxCell>
        <mxCell id="0kyeVdW8HTEz_GP9G8ct-2" value="Login with saved credentials, Search Cards, Make Orders to Pickup in Store, Submit Decklists, Read Decklists, See Event Schedules,&amp;nbsp;&lt;br&gt;Order Product through Stripe API" style="text;html=1;strokeColor=none;fillColor=none;align=center;verticalAlign=middle;whiteSpace=wrap;rounded=0;" parent="WIyWlLk6GJQsqaUBKTNV-1" vertex="1">
          <mxGeometry x="74" y="855" width="340" height="90" as="geometry" />
        </mxCell>
        <mxCell id="0kyeVdW8HTEz_GP9G8ct-3" value="login, Have Own DashBoard,&amp;nbsp; Update the product collection (prices, stock), approve orders from customers, Create Events (FNM, PTQ), Publish Decklists from users who submit, publish decklists of week/month, create different products and put them in collections" style="text;html=1;strokeColor=none;fillColor=none;align=center;verticalAlign=middle;whiteSpace=wrap;rounded=0;" parent="WIyWlLk6GJQsqaUBKTNV-1" vertex="1">
          <mxGeometry x="74" y="940" width="330" height="100" as="geometry" />
        </mxCell>
        <mxCell id="0kyeVdW8HTEz_GP9G8ct-4" value="What to do with imgs?" style="text;html=1;strokeColor=none;fillColor=none;align=center;verticalAlign=middle;whiteSpace=wrap;rounded=0;" parent="WIyWlLk6GJQsqaUBKTNV-1" vertex="1">
          <mxGeometry x="410" y="1025" width="80" height="80" as="geometry" />
        </mxCell>
        <mxCell id="0kyeVdW8HTEz_GP9G8ct-5" value="Admin can see logs from Employees/Users, Same Features as Employees, Has same CRUD but can RWDU employees" style="text;html=1;strokeColor=none;fillColor=none;align=center;verticalAlign=middle;whiteSpace=wrap;rounded=0;" parent="WIyWlLk6GJQsqaUBKTNV-1" vertex="1">
          <mxGeometry x="94" y="1040" width="270" height="80" as="geometry" />
        </mxCell>
        <mxCell id="0kyeVdW8HTEz_GP9G8ct-20" value="" style="edgeStyle=orthogonalEdgeStyle;rounded=0;orthogonalLoop=1;jettySize=auto;html=1;fillColor=#f8cecc;strokeColor=#b85450;" parent="WIyWlLk6GJQsqaUBKTNV-1" source="0kyeVdW8HTEz_GP9G8ct-6" target="0kyeVdW8HTEz_GP9G8ct-19" edge="1">
          <mxGeometry relative="1" as="geometry" />
        </mxCell>
        <mxCell id="0kyeVdW8HTEz_GP9G8ct-26" value="" style="edgeStyle=orthogonalEdgeStyle;rounded=0;orthogonalLoop=1;jettySize=auto;html=1;fillColor=#f8cecc;strokeColor=#b85450;" parent="WIyWlLk6GJQsqaUBKTNV-1" source="0kyeVdW8HTEz_GP9G8ct-6" target="0kyeVdW8HTEz_GP9G8ct-25" edge="1">
          <mxGeometry relative="1" as="geometry" />
        </mxCell>
        <mxCell id="0kyeVdW8HTEz_GP9G8ct-32" value="" style="edgeStyle=orthogonalEdgeStyle;rounded=0;orthogonalLoop=1;jettySize=auto;html=1;fillColor=#f8cecc;strokeColor=#b85450;" parent="WIyWlLk6GJQsqaUBKTNV-1" source="0kyeVdW8HTEz_GP9G8ct-6" target="0kyeVdW8HTEz_GP9G8ct-31" edge="1">
          <mxGeometry relative="1" as="geometry" />
        </mxCell>
        <mxCell id="0kyeVdW8HTEz_GP9G8ct-6" value="LOGIN" style="rounded=0;whiteSpace=wrap;html=1;direction=west;fillColor=#f8cecc;strokeColor=#b85450;" parent="WIyWlLk6GJQsqaUBKTNV-1" vertex="1">
          <mxGeometry x="65" y="1357.5" width="90" height="50" as="geometry" />
        </mxCell>
        <mxCell id="0kyeVdW8HTEz_GP9G8ct-7" value="SEARCH CARDS" style="rounded=0;whiteSpace=wrap;html=1;fillColor=#fff2cc;strokeColor=#d6b656;" parent="WIyWlLk6GJQsqaUBKTNV-1" vertex="1">
          <mxGeometry x="635" y="1160" width="120" height="60" as="geometry" />
        </mxCell>
        <mxCell id="0kyeVdW8HTEz_GP9G8ct-8" value="SEE EVENT SCHEDULE" style="rounded=0;whiteSpace=wrap;html=1;fillColor=#f8cecc;strokeColor=#b85450;" parent="WIyWlLk6GJQsqaUBKTNV-1" vertex="1">
          <mxGeometry x="635" y="1255" width="120" height="60" as="geometry" />
        </mxCell>
        <mxCell id="0kyeVdW8HTEz_GP9G8ct-13" value="" style="edgeStyle=orthogonalEdgeStyle;rounded=0;orthogonalLoop=1;jettySize=auto;html=1;fillColor=#f8cecc;strokeColor=#b85450;" parent="WIyWlLk6GJQsqaUBKTNV-1" source="0kyeVdW8HTEz_GP9G8ct-9" target="0kyeVdW8HTEz_GP9G8ct-12" edge="1">
          <mxGeometry relative="1" as="geometry" />
        </mxCell>
        <mxCell id="0kyeVdW8HTEz_GP9G8ct-39" style="edgeStyle=orthogonalEdgeStyle;rounded=0;orthogonalLoop=1;jettySize=auto;html=1;exitX=1;exitY=0.5;exitDx=0;exitDy=0;entryX=0;entryY=0.5;entryDx=0;entryDy=0;fillColor=#f8cecc;strokeColor=#b85450;" parent="WIyWlLk6GJQsqaUBKTNV-1" source="0kyeVdW8HTEz_GP9G8ct-9" target="0kyeVdW8HTEz_GP9G8ct-6" edge="1">
          <mxGeometry relative="1" as="geometry" />
        </mxCell>
        <mxCell id="0kyeVdW8HTEz_GP9G8ct-9" value="- ADD CARDS TO CART&lt;br&gt;- REMOVE CARDS FROM CART&lt;br&gt;" style="rounded=0;whiteSpace=wrap;html=1;direction=west;fillColor=#f8cecc;strokeColor=#b85450;" parent="WIyWlLk6GJQsqaUBKTNV-1" vertex="1">
          <mxGeometry x="240" y="1331.25" width="100" height="102.5" as="geometry" />
        </mxCell>
        <mxCell id="0kyeVdW8HTEz_GP9G8ct-12" value="- CHECKOUT/PURCHASE AT STORE" style="whiteSpace=wrap;html=1;rounded=0;fillColor=#f8cecc;strokeColor=#b85450;" parent="WIyWlLk6GJQsqaUBKTNV-1" vertex="1">
          <mxGeometry x="414" y="1335" width="160" height="95" as="geometry" />
        </mxCell>
        <mxCell id="0kyeVdW8HTEz_GP9G8ct-22" value="" style="edgeStyle=orthogonalEdgeStyle;rounded=0;orthogonalLoop=1;jettySize=auto;html=1;fillColor=#f8cecc;strokeColor=#b85450;" parent="WIyWlLk6GJQsqaUBKTNV-1" source="0kyeVdW8HTEz_GP9G8ct-19" target="0kyeVdW8HTEz_GP9G8ct-21" edge="1">
          <mxGeometry relative="1" as="geometry" />
        </mxCell>
        <mxCell id="0kyeVdW8HTEz_GP9G8ct-19" value="REGISTER FOR EVENT" style="rounded=0;whiteSpace=wrap;html=1;direction=west;fillColor=#f8cecc;strokeColor=#b85450;" parent="WIyWlLk6GJQsqaUBKTNV-1" vertex="1">
          <mxGeometry x="62.5" y="1440" width="95" height="50" as="geometry" />
        </mxCell>
        <mxCell id="0kyeVdW8HTEz_GP9G8ct-21" value="SUBMIT DECKLIST" style="rounded=0;whiteSpace=wrap;html=1;direction=west;fillColor=#f8cecc;strokeColor=#b85450;" parent="WIyWlLk6GJQsqaUBKTNV-1" vertex="1">
          <mxGeometry x="55" y="1530" width="110" height="50" as="geometry" />
        </mxCell>
        <mxCell id="0kyeVdW8HTEz_GP9G8ct-30" value="" style="edgeStyle=orthogonalEdgeStyle;rounded=0;orthogonalLoop=1;jettySize=auto;html=1;fillColor=#f8cecc;strokeColor=#b85450;" parent="WIyWlLk6GJQsqaUBKTNV-1" source="0kyeVdW8HTEz_GP9G8ct-25" target="0kyeVdW8HTEz_GP9G8ct-29" edge="1">
          <mxGeometry relative="1" as="geometry" />
        </mxCell>
        <mxCell id="0kyeVdW8HTEz_GP9G8ct-25" value="VIEW ORDERS" style="rounded=0;whiteSpace=wrap;html=1;direction=west;fillColor=#f8cecc;strokeColor=#b85450;" parent="WIyWlLk6GJQsqaUBKTNV-1" vertex="1">
          <mxGeometry x="60" y="1285" width="100" height="40" as="geometry" />
        </mxCell>
        <mxCell id="0kyeVdW8HTEz_GP9G8ct-29" value="CANCEL ORDERS" style="whiteSpace=wrap;html=1;rounded=0;fillColor=#f8cecc;strokeColor=#b85450;" parent="WIyWlLk6GJQsqaUBKTNV-1" vertex="1">
          <mxGeometry x="60" y="1220" width="100" height="35" as="geometry" />
        </mxCell>
        <mxCell id="0kyeVdW8HTEz_GP9G8ct-31" value="VIEW USER INFO, LOGIN CREDENTIALS,PREVIOUS EVENTS/DECKLISTS" style="rounded=0;whiteSpace=wrap;html=1;direction=west;fillColor=#f8cecc;strokeColor=#b85450;" parent="WIyWlLk6GJQsqaUBKTNV-1" vertex="1">
          <mxGeometry x="-180" y="1335" width="170" height="87.5" as="geometry" />
        </mxCell>
        <mxCell id="0kyeVdW8HTEz_GP9G8ct-37" value="" style="edgeStyle=orthogonalEdgeStyle;rounded=0;orthogonalLoop=1;jettySize=auto;html=1;fillColor=#f8cecc;strokeColor=#b85450;" parent="WIyWlLk6GJQsqaUBKTNV-1" source="0kyeVdW8HTEz_GP9G8ct-35" target="0kyeVdW8HTEz_GP9G8ct-36" edge="1">
          <mxGeometry relative="1" as="geometry" />
        </mxCell>
        <mxCell id="0kyeVdW8HTEz_GP9G8ct-35" value="CREATE ACCOUNT" style="rounded=0;whiteSpace=wrap;html=1;fillColor=#f8cecc;strokeColor=#b85450;" parent="WIyWlLk6GJQsqaUBKTNV-1" vertex="1">
          <mxGeometry x="-170" y="1125" width="160" height="70" as="geometry" />
        </mxCell>
        <mxCell id="0kyeVdW8HTEz_GP9G8ct-36" value="EMAIL CONFIRM THROUGH TWILLIO API" style="rounded=0;whiteSpace=wrap;html=1;fillColor=#f8cecc;strokeColor=#b85450;" parent="WIyWlLk6GJQsqaUBKTNV-1" vertex="1">
          <mxGeometry x="-170" y="1215" width="160" height="70" as="geometry" />
        </mxCell>
        <mxCell id="0kyeVdW8HTEz_GP9G8ct-41" value="CUSTOMER" style="text;html=1;strokeColor=#b85450;fillColor=#f8cecc;align=center;verticalAlign=middle;whiteSpace=wrap;rounded=0;fontSize=26;" parent="WIyWlLk6GJQsqaUBKTNV-1" vertex="1">
          <mxGeometry x="230" y="1160" width="270" height="140" as="geometry" />
        </mxCell>
        <mxCell id="0kyeVdW8HTEz_GP9G8ct-42" value="" style="edgeStyle=orthogonalEdgeStyle;rounded=0;orthogonalLoop=1;jettySize=auto;html=1;fillColor=#f8cecc;strokeColor=#b85450;" parent="WIyWlLk6GJQsqaUBKTNV-1" source="0kyeVdW8HTEz_GP9G8ct-45" target="0kyeVdW8HTEz_GP9G8ct-53" edge="1">
          <mxGeometry relative="1" as="geometry" />
        </mxCell>
        <mxCell id="0kyeVdW8HTEz_GP9G8ct-43" value="" style="edgeStyle=orthogonalEdgeStyle;rounded=0;orthogonalLoop=1;jettySize=auto;html=1;fillColor=#f8cecc;strokeColor=#b85450;" parent="WIyWlLk6GJQsqaUBKTNV-1" source="0kyeVdW8HTEz_GP9G8ct-45" target="0kyeVdW8HTEz_GP9G8ct-56" edge="1">
          <mxGeometry relative="1" as="geometry" />
        </mxCell>
        <mxCell id="0kyeVdW8HTEz_GP9G8ct-44" value="" style="edgeStyle=orthogonalEdgeStyle;rounded=0;orthogonalLoop=1;jettySize=auto;html=1;fillColor=#f8cecc;strokeColor=#b85450;" parent="WIyWlLk6GJQsqaUBKTNV-1" source="0kyeVdW8HTEz_GP9G8ct-45" target="0kyeVdW8HTEz_GP9G8ct-58" edge="1">
          <mxGeometry relative="1" as="geometry" />
        </mxCell>
        <mxCell id="0kyeVdW8HTEz_GP9G8ct-66" style="edgeStyle=orthogonalEdgeStyle;rounded=0;orthogonalLoop=1;jettySize=auto;html=1;exitX=1;exitY=0;exitDx=0;exitDy=0;fontSize=26;fillColor=#f8cecc;strokeColor=#b85450;" parent="WIyWlLk6GJQsqaUBKTNV-1" source="0kyeVdW8HTEz_GP9G8ct-45" target="0kyeVdW8HTEz_GP9G8ct-67" edge="1">
          <mxGeometry relative="1" as="geometry">
            <mxPoint x="-1150" y="1440" as="targetPoint" />
          </mxGeometry>
        </mxCell>
        <mxCell id="0kyeVdW8HTEz_GP9G8ct-99" style="edgeStyle=orthogonalEdgeStyle;rounded=0;orthogonalLoop=1;jettySize=auto;html=1;exitX=0;exitY=1;exitDx=0;exitDy=0;entryX=0;entryY=0.5;entryDx=0;entryDy=0;fontSize=12;fillColor=#f8cecc;strokeColor=#b85450;" parent="WIyWlLk6GJQsqaUBKTNV-1" source="0kyeVdW8HTEz_GP9G8ct-45" target="0kyeVdW8HTEz_GP9G8ct-97" edge="1">
          <mxGeometry relative="1" as="geometry">
            <Array as="points">
              <mxPoint x="-940" y="1323" />
              <mxPoint x="-940" y="1270" />
              <mxPoint x="-700" y="1270" />
            </Array>
          </mxGeometry>
        </mxCell>
        <mxCell id="0kyeVdW8HTEz_GP9G8ct-45" value="LOGIN" style="rounded=0;whiteSpace=wrap;html=1;direction=west;fillColor=#fff2cc;strokeColor=#d6b656;" parent="WIyWlLk6GJQsqaUBKTNV-1" vertex="1">
          <mxGeometry x="-1065" y="1322.5" width="90" height="50" as="geometry" />
        </mxCell>
        <mxCell id="0kyeVdW8HTEz_GP9G8ct-100" style="edgeStyle=orthogonalEdgeStyle;rounded=0;orthogonalLoop=1;jettySize=auto;html=1;exitX=0.5;exitY=0;exitDx=0;exitDy=0;entryX=0.44;entryY=1.033;entryDx=0;entryDy=0;entryPerimeter=0;fontSize=12;fillColor=#f8cecc;strokeColor=#b85450;" parent="WIyWlLk6GJQsqaUBKTNV-1" source="0kyeVdW8HTEz_GP9G8ct-47" target="0kyeVdW8HTEz_GP9G8ct-97" edge="1">
          <mxGeometry relative="1" as="geometry" />
        </mxCell>
        <mxCell id="0kyeVdW8HTEz_GP9G8ct-47" value="SEE EVENT SCHEDULE" style="rounded=0;whiteSpace=wrap;html=1;fillColor=#f8cecc;strokeColor=#b85450;" parent="WIyWlLk6GJQsqaUBKTNV-1" vertex="1">
          <mxGeometry x="-730" y="1346.25" width="120" height="60" as="geometry" />
        </mxCell>
        <mxCell id="0kyeVdW8HTEz_GP9G8ct-49" style="edgeStyle=orthogonalEdgeStyle;rounded=0;orthogonalLoop=1;jettySize=auto;html=1;exitX=1;exitY=0.5;exitDx=0;exitDy=0;entryX=0;entryY=0.5;entryDx=0;entryDy=0;fillColor=#f8cecc;strokeColor=#b85450;" parent="WIyWlLk6GJQsqaUBKTNV-1" source="0kyeVdW8HTEz_GP9G8ct-50" target="0kyeVdW8HTEz_GP9G8ct-45" edge="1">
          <mxGeometry relative="1" as="geometry" />
        </mxCell>
        <mxCell id="0kyeVdW8HTEz_GP9G8ct-50" value="CRUD PRODUCTS" style="rounded=0;whiteSpace=wrap;html=1;direction=west;fillColor=#fff2cc;strokeColor=#d6b656;" parent="WIyWlLk6GJQsqaUBKTNV-1" vertex="1">
          <mxGeometry x="-890" y="1296.25" width="100" height="102.5" as="geometry" />
        </mxCell>
        <mxCell id="0kyeVdW8HTEz_GP9G8ct-98" style="edgeStyle=orthogonalEdgeStyle;rounded=0;orthogonalLoop=1;jettySize=auto;html=1;exitX=0;exitY=0.5;exitDx=0;exitDy=0;entryX=0.5;entryY=1;entryDx=0;entryDy=0;fontSize=12;fillColor=#f8cecc;strokeColor=#b85450;" parent="WIyWlLk6GJQsqaUBKTNV-1" source="0kyeVdW8HTEz_GP9G8ct-53" target="0kyeVdW8HTEz_GP9G8ct-47" edge="1">
          <mxGeometry relative="1" as="geometry" />
        </mxCell>
        <mxCell id="0kyeVdW8HTEz_GP9G8ct-53" value="CREATE EVENTS" style="rounded=0;whiteSpace=wrap;html=1;direction=west;fillColor=#f8cecc;strokeColor=#b85450;" parent="WIyWlLk6GJQsqaUBKTNV-1" vertex="1">
          <mxGeometry x="-1040" y="1407.5" width="95" height="50" as="geometry" />
        </mxCell>
        <mxCell id="0kyeVdW8HTEz_GP9G8ct-80" value="" style="edgeStyle=orthogonalEdgeStyle;rounded=0;orthogonalLoop=1;jettySize=auto;html=1;fontSize=12;fillColor=#f8cecc;strokeColor=#b85450;" parent="WIyWlLk6GJQsqaUBKTNV-1" source="0kyeVdW8HTEz_GP9G8ct-54" target="0kyeVdW8HTEz_GP9G8ct-69" edge="1">
          <mxGeometry relative="1" as="geometry" />
        </mxCell>
        <mxCell id="0kyeVdW8HTEz_GP9G8ct-54" value="APPROVE DECKLISTS" style="rounded=0;whiteSpace=wrap;html=1;direction=west;fillColor=#f8cecc;strokeColor=#b85450;" parent="WIyWlLk6GJQsqaUBKTNV-1" vertex="1">
          <mxGeometry x="-1220" y="1605" width="110" height="50" as="geometry" />
        </mxCell>
        <mxCell id="0kyeVdW8HTEz_GP9G8ct-55" value="" style="edgeStyle=orthogonalEdgeStyle;rounded=0;orthogonalLoop=1;jettySize=auto;html=1;fillColor=#f8cecc;strokeColor=#b85450;" parent="WIyWlLk6GJQsqaUBKTNV-1" source="0kyeVdW8HTEz_GP9G8ct-56" target="0kyeVdW8HTEz_GP9G8ct-57" edge="1">
          <mxGeometry relative="1" as="geometry" />
        </mxCell>
        <mxCell id="0kyeVdW8HTEz_GP9G8ct-95" style="edgeStyle=orthogonalEdgeStyle;rounded=0;orthogonalLoop=1;jettySize=auto;html=1;exitX=1;exitY=0.5;exitDx=0;exitDy=0;entryX=0.5;entryY=1;entryDx=0;entryDy=0;fontSize=12;fillColor=#f8cecc;strokeColor=#b85450;" parent="WIyWlLk6GJQsqaUBKTNV-1" source="0kyeVdW8HTEz_GP9G8ct-56" target="0kyeVdW8HTEz_GP9G8ct-94" edge="1">
          <mxGeometry relative="1" as="geometry" />
        </mxCell>
        <mxCell id="0kyeVdW8HTEz_GP9G8ct-56" value="VIEW ORDERS" style="rounded=0;whiteSpace=wrap;html=1;direction=west;fillColor=#f8cecc;strokeColor=#b85450;" parent="WIyWlLk6GJQsqaUBKTNV-1" vertex="1">
          <mxGeometry x="-1070" y="1250" width="100" height="40" as="geometry" />
        </mxCell>
        <mxCell id="0kyeVdW8HTEz_GP9G8ct-57" value="DECLINE/CANCEL ORDER&amp;nbsp;" style="whiteSpace=wrap;html=1;rounded=0;fillColor=#f8cecc;strokeColor=#b85450;" parent="WIyWlLk6GJQsqaUBKTNV-1" vertex="1">
          <mxGeometry x="-1070" y="1135" width="100" height="80" as="geometry" />
        </mxCell>
        <mxCell id="0kyeVdW8HTEz_GP9G8ct-58" value="VIEW USER INFO, LOGIN CREDENTIALS,PREVIOUS EVENTS/DECKLISTS" style="rounded=0;whiteSpace=wrap;html=1;direction=west;fillColor=#f8cecc;strokeColor=#b85450;" parent="WIyWlLk6GJQsqaUBKTNV-1" vertex="1">
          <mxGeometry x="-1380" y="1346.25" width="170" height="87.5" as="geometry" />
        </mxCell>
        <mxCell id="0kyeVdW8HTEz_GP9G8ct-62" value="EMPLOYEE" style="text;html=1;strokeColor=none;fillColor=none;align=center;verticalAlign=middle;whiteSpace=wrap;rounded=0;fontSize=26;" parent="WIyWlLk6GJQsqaUBKTNV-1" vertex="1">
          <mxGeometry x="-960" y="1105" width="270" height="140" as="geometry" />
        </mxCell>
        <mxCell id="0kyeVdW8HTEz_GP9G8ct-63" value="login, Have Own DashBoard,&amp;nbsp; Update the product collection (prices, stock), approve orders from customers, Create Events (FNM, PTQ), Publish Decklists from users who submit, publish decklists of week/month, create different products and put them in collections" style="text;html=1;strokeColor=none;fillColor=none;align=center;verticalAlign=middle;whiteSpace=wrap;rounded=0;" parent="WIyWlLk6GJQsqaUBKTNV-1" vertex="1">
          <mxGeometry x="-960" y="980" width="330" height="100" as="geometry" />
        </mxCell>
        <mxCell id="0kyeVdW8HTEz_GP9G8ct-72" value="" style="edgeStyle=orthogonalEdgeStyle;rounded=0;orthogonalLoop=1;jettySize=auto;html=1;fontSize=12;fillColor=#f8cecc;strokeColor=#b85450;" parent="WIyWlLk6GJQsqaUBKTNV-1" source="0kyeVdW8HTEz_GP9G8ct-67" target="0kyeVdW8HTEz_GP9G8ct-71" edge="1">
          <mxGeometry relative="1" as="geometry" />
        </mxCell>
        <mxCell id="0kyeVdW8HTEz_GP9G8ct-67" value="VIEW EVENTS" style="rounded=0;whiteSpace=wrap;html=1;fontSize=12;fillColor=#f8cecc;strokeColor=#b85450;" parent="WIyWlLk6GJQsqaUBKTNV-1" vertex="1">
          <mxGeometry x="-1230" y="1460" width="120" height="60" as="geometry" />
        </mxCell>
        <mxCell id="0kyeVdW8HTEz_GP9G8ct-79" value="" style="edgeStyle=orthogonalEdgeStyle;rounded=0;orthogonalLoop=1;jettySize=auto;html=1;fontSize=12;fillColor=#f8cecc;strokeColor=#b85450;" parent="WIyWlLk6GJQsqaUBKTNV-1" source="0kyeVdW8HTEz_GP9G8ct-69" target="0kyeVdW8HTEz_GP9G8ct-78" edge="1">
          <mxGeometry relative="1" as="geometry" />
        </mxCell>
        <mxCell id="0kyeVdW8HTEz_GP9G8ct-69" value="VIEW DECKLISTS" style="rounded=0;whiteSpace=wrap;html=1;fontSize=12;fillColor=#f8cecc;strokeColor=#b85450;" parent="WIyWlLk6GJQsqaUBKTNV-1" vertex="1">
          <mxGeometry x="-1065" y="1600" width="120" height="60" as="geometry" />
        </mxCell>
        <mxCell id="0kyeVdW8HTEz_GP9G8ct-71" value="EDIT/CANCEL EVENT" style="whiteSpace=wrap;html=1;rounded=0;fillColor=#f8cecc;strokeColor=#b85450;" parent="WIyWlLk6GJQsqaUBKTNV-1" vertex="1">
          <mxGeometry x="-1400" y="1460" width="120" height="60" as="geometry" />
        </mxCell>
        <mxCell id="0kyeVdW8HTEz_GP9G8ct-82" value="" style="edgeStyle=orthogonalEdgeStyle;rounded=0;orthogonalLoop=1;jettySize=auto;html=1;fontSize=12;fillColor=#f8cecc;strokeColor=#b85450;" parent="WIyWlLk6GJQsqaUBKTNV-1" source="0kyeVdW8HTEz_GP9G8ct-73" target="0kyeVdW8HTEz_GP9G8ct-67" edge="1">
          <mxGeometry relative="1" as="geometry" />
        </mxCell>
        <mxCell id="0kyeVdW8HTEz_GP9G8ct-83" value="" style="edgeStyle=orthogonalEdgeStyle;rounded=0;orthogonalLoop=1;jettySize=auto;html=1;fontSize=12;fillColor=#f8cecc;strokeColor=#b85450;" parent="WIyWlLk6GJQsqaUBKTNV-1" source="0kyeVdW8HTEz_GP9G8ct-73" target="0kyeVdW8HTEz_GP9G8ct-69" edge="1">
          <mxGeometry relative="1" as="geometry" />
        </mxCell>
        <mxCell id="0kyeVdW8HTEz_GP9G8ct-85" value="" style="edgeStyle=orthogonalEdgeStyle;rounded=0;orthogonalLoop=1;jettySize=auto;html=1;fontSize=12;fillColor=#f8cecc;strokeColor=#b85450;" parent="WIyWlLk6GJQsqaUBKTNV-1" source="0kyeVdW8HTEz_GP9G8ct-73" target="0kyeVdW8HTEz_GP9G8ct-84" edge="1">
          <mxGeometry relative="1" as="geometry" />
        </mxCell>
        <mxCell id="0kyeVdW8HTEz_GP9G8ct-73" value="VIEW PARTICIPANTS" style="rounded=0;whiteSpace=wrap;html=1;fontSize=12;fillColor=#f8cecc;strokeColor=#b85450;" parent="WIyWlLk6GJQsqaUBKTNV-1" vertex="1">
          <mxGeometry x="-1060" y="1510" width="110" height="65" as="geometry" />
        </mxCell>
        <mxCell id="0kyeVdW8HTEz_GP9G8ct-78" value="PUBLISH DECKLISTS&amp;nbsp;" style="rounded=0;whiteSpace=wrap;html=1;fontSize=12;fillColor=#f8cecc;strokeColor=#b85450;" parent="WIyWlLk6GJQsqaUBKTNV-1" vertex="1">
          <mxGeometry x="-1065" y="1715" width="120" height="60" as="geometry" />
        </mxCell>
        <mxCell id="0kyeVdW8HTEz_GP9G8ct-84" value="DELETE PARTICIPANTS" style="whiteSpace=wrap;html=1;rounded=0;fillColor=#f8cecc;strokeColor=#b85450;" parent="WIyWlLk6GJQsqaUBKTNV-1" vertex="1">
          <mxGeometry x="-890" y="1512.5" width="120" height="60" as="geometry" />
        </mxCell>
        <mxCell id="0kyeVdW8HTEz_GP9G8ct-94" value="APPROVE ORDER, SENDS EMAIL CONFIRM" style="rounded=0;whiteSpace=wrap;html=1;fontSize=12;fillColor=#f8cecc;strokeColor=#b85450;" parent="WIyWlLk6GJQsqaUBKTNV-1" vertex="1">
          <mxGeometry x="-1230" y="1185" width="120" height="60" as="geometry" />
        </mxCell>
        <mxCell id="0kyeVdW8HTEz_GP9G8ct-97" value="CRUD HOMEPAGE NEWSFEED WITH EVENT SCHEDULE AND DECKLISTS" style="rounded=0;whiteSpace=wrap;html=1;fontSize=12;fillColor=#f8cecc;strokeColor=#b85450;" parent="WIyWlLk6GJQsqaUBKTNV-1" vertex="1">
          <mxGeometry x="-700" y="1230" width="120" height="60" as="geometry" />
        </mxCell>
        <mxCell id="0kyeVdW8HTEz_GP9G8ct-101" value="ADMIN" style="text;html=1;strokeColor=none;fillColor=none;align=center;verticalAlign=middle;whiteSpace=wrap;rounded=0;fontSize=26;" parent="WIyWlLk6GJQsqaUBKTNV-1" vertex="1">
          <mxGeometry x="-1175" y="655" width="270" height="140" as="geometry" />
        </mxCell>
        <mxCell id="0kyeVdW8HTEz_GP9G8ct-107" value="" style="edgeStyle=orthogonalEdgeStyle;rounded=0;orthogonalLoop=1;jettySize=auto;html=1;fontSize=12;fillColor=#f8cecc;strokeColor=#b85450;" parent="WIyWlLk6GJQsqaUBKTNV-1" source="0kyeVdW8HTEz_GP9G8ct-102" target="0kyeVdW8HTEz_GP9G8ct-106" edge="1">
          <mxGeometry relative="1" as="geometry" />
        </mxCell>
        <mxCell id="0kyeVdW8HTEz_GP9G8ct-110" value="" style="edgeStyle=orthogonalEdgeStyle;rounded=0;orthogonalLoop=1;jettySize=auto;html=1;fontSize=12;fillColor=#f8cecc;strokeColor=#b85450;" parent="WIyWlLk6GJQsqaUBKTNV-1" source="0kyeVdW8HTEz_GP9G8ct-102" target="0kyeVdW8HTEz_GP9G8ct-109" edge="1">
          <mxGeometry relative="1" as="geometry" />
        </mxCell>
        <mxCell id="0kyeVdW8HTEz_GP9G8ct-112" value="" style="edgeStyle=orthogonalEdgeStyle;rounded=0;orthogonalLoop=1;jettySize=auto;html=1;fontSize=12;fillColor=#f8cecc;strokeColor=#b85450;" parent="WIyWlLk6GJQsqaUBKTNV-1" source="0kyeVdW8HTEz_GP9G8ct-102" target="0kyeVdW8HTEz_GP9G8ct-111" edge="1">
          <mxGeometry relative="1" as="geometry" />
        </mxCell>
        <mxCell id="0kyeVdW8HTEz_GP9G8ct-102" value="LOGIN" style="rounded=0;whiteSpace=wrap;html=1;fontSize=12;fillColor=#fff2cc;strokeColor=#d6b656;" parent="WIyWlLk6GJQsqaUBKTNV-1" vertex="1">
          <mxGeometry x="-1095" y="750" width="120" height="60" as="geometry" />
        </mxCell>
        <mxCell id="0kyeVdW8HTEz_GP9G8ct-103" value="Admin can see logs from Employees/Users, Same Features as Employees, Has same CRUD but can RWDU employees" style="text;html=1;strokeColor=none;fillColor=none;align=center;verticalAlign=middle;whiteSpace=wrap;rounded=0;" parent="WIyWlLk6GJQsqaUBKTNV-1" vertex="1">
          <mxGeometry x="-805" y="685" width="270" height="80" as="geometry" />
        </mxCell>
        <mxCell id="0kyeVdW8HTEz_GP9G8ct-106" value="CRUD EMPLOYEES" style="rounded=0;whiteSpace=wrap;html=1;fontSize=12;fillColor=#f8cecc;strokeColor=#b85450;" parent="WIyWlLk6GJQsqaUBKTNV-1" vertex="1">
          <mxGeometry x="-1095" y="865" width="120" height="60" as="geometry" />
        </mxCell>
        <mxCell id="0kyeVdW8HTEz_GP9G8ct-109" value="SAME CRUD AND FUNCTIONS AS EMPLOYEES" style="rounded=0;whiteSpace=wrap;html=1;fontSize=12;fillColor=#f8cecc;strokeColor=#b85450;" parent="WIyWlLk6GJQsqaUBKTNV-1" vertex="1">
          <mxGeometry x="-1295" y="750" width="120" height="60" as="geometry" />
        </mxCell>
        <mxCell id="0kyeVdW8HTEz_GP9G8ct-111" value="SEE LOGS FROM USERS/EMPLOYEES" style="rounded=0;whiteSpace=wrap;html=1;fontSize=12;fillColor=#f8cecc;strokeColor=#b85450;" parent="WIyWlLk6GJQsqaUBKTNV-1" vertex="1">
          <mxGeometry x="-920" y="750" width="120" height="60" as="geometry" />
        </mxCell>
        <mxCell id="8eh1MpgVd8GPuJ81jZMR-6" value="Customer" style="swimlane;fontStyle=2;align=center;verticalAlign=top;childLayout=stackLayout;horizontal=1;startSize=26;horizontalStack=0;resizeParent=1;resizeLast=0;collapsible=1;marginBottom=0;rounded=0;shadow=0;strokeWidth=1;" parent="WIyWlLk6GJQsqaUBKTNV-1" vertex="1">
          <mxGeometry x="-262" y="160" width="160" height="210" as="geometry">
            <mxRectangle x="230" y="140" width="160" height="26" as="alternateBounds" />
          </mxGeometry>
        </mxCell>
        <mxCell id="8eh1MpgVd8GPuJ81jZMR-7" value="- customerName: string &#xa;- email: string&#xa;- storeCredit: int&#xa;- eventHistory: string&#xa;- decklistHistory: string&#xa;- orderHistory: string" style="text;align=left;verticalAlign=top;spacingLeft=4;spacingRight=4;overflow=hidden;rotatable=0;points=[[0,0.5],[1,0.5]];portConstraint=eastwest;" parent="8eh1MpgVd8GPuJ81jZMR-6" vertex="1">
          <mxGeometry y="26" width="160" height="84" as="geometry" />
        </mxCell>
        <mxCell id="8eh1MpgVd8GPuJ81jZMR-10" value="" style="line;html=1;strokeWidth=1;align=left;verticalAlign=middle;spacingTop=-1;spacingLeft=3;spacingRight=3;rotatable=0;labelPosition=right;points=[];portConstraint=eastwest;" parent="8eh1MpgVd8GPuJ81jZMR-6" vertex="1">
          <mxGeometry y="110" width="160" height="20" as="geometry" />
        </mxCell>
        <mxCell id="8eh1MpgVd8GPuJ81jZMR-26" value="+register()&lt;br&gt;+login()&lt;br&gt;+updateProfile()" style="text;html=1;strokeColor=none;fillColor=none;align=left;verticalAlign=middle;whiteSpace=wrap;rounded=0;" parent="8eh1MpgVd8GPuJ81jZMR-6" vertex="1">
          <mxGeometry y="130" width="160" height="70" as="geometry" />
        </mxCell>
        <mxCell id="8eh1MpgVd8GPuJ81jZMR-20" style="edgeStyle=orthogonalEdgeStyle;rounded=0;orthogonalLoop=1;jettySize=auto;html=1;exitX=1;exitY=0.5;exitDx=0;exitDy=0;entryX=-0.013;entryY=0.177;entryDx=0;entryDy=0;entryPerimeter=0;" parent="WIyWlLk6GJQsqaUBKTNV-1" edge="1">
          <mxGeometry relative="1" as="geometry">
            <mxPoint x="-102" y="288" as="sourcePoint" />
            <mxPoint x="-17.079999999999927" y="232.60199999999998" as="targetPoint" />
            <Array as="points">
              <mxPoint x="-102" y="233" />
            </Array>
          </mxGeometry>
        </mxCell>
        <mxCell id="8eh1MpgVd8GPuJ81jZMR-24" value="- username: string&lt;br&gt;&lt;div&gt;&lt;span&gt;- password: string&lt;/span&gt;&lt;/div&gt;&lt;div&gt;&lt;span&gt;- login status: bool&lt;/span&gt;&lt;/div&gt;&lt;div&gt;&lt;span&gt;- userID: string&lt;/span&gt;&lt;/div&gt;" style="text;html=1;strokeColor=#d6b656;fillColor=#fff2cc;align=left;verticalAlign=middle;whiteSpace=wrap;rounded=0;" parent="WIyWlLk6GJQsqaUBKTNV-1" vertex="1">
          <mxGeometry x="-15" y="180" width="160" height="90" as="geometry" />
        </mxCell>
        <mxCell id="8eh1MpgVd8GPuJ81jZMR-25" value="+ verifyLogin(): bool" style="text;html=1;strokeColor=#d6b656;fillColor=#fff2cc;align=left;verticalAlign=middle;whiteSpace=wrap;rounded=0;" parent="WIyWlLk6GJQsqaUBKTNV-1" vertex="1">
          <mxGeometry x="-15" y="300" width="160" height="70" as="geometry" />
        </mxCell>
        <mxCell id="8eh1MpgVd8GPuJ81jZMR-28" value="Decklist" style="swimlane;fontStyle=2;align=center;verticalAlign=top;childLayout=stackLayout;horizontal=1;startSize=26;horizontalStack=0;resizeParent=1;resizeLast=0;collapsible=1;marginBottom=0;rounded=0;shadow=0;strokeWidth=1;" parent="WIyWlLk6GJQsqaUBKTNV-1" vertex="1">
          <mxGeometry x="-390" y="454" width="277" height="260" as="geometry">
            <mxRectangle x="230" y="140" width="160" height="26" as="alternateBounds" />
          </mxGeometry>
        </mxCell>
        <mxCell id="8eh1MpgVd8GPuJ81jZMR-29" value="- decklist_id: string&#xa;- mainboard: obj {string(card) : quantity(int)}&#xa;- sideboard: obj {string(card) : quantity(int)}" style="text;align=left;verticalAlign=top;spacingLeft=4;spacingRight=4;overflow=hidden;rotatable=0;points=[[0,0.5],[1,0.5]];portConstraint=eastwest;" parent="8eh1MpgVd8GPuJ81jZMR-28" vertex="1">
          <mxGeometry y="26" width="277" height="84" as="geometry" />
        </mxCell>
        <mxCell id="8eh1MpgVd8GPuJ81jZMR-30" value="" style="line;html=1;strokeWidth=1;align=left;verticalAlign=middle;spacingTop=-1;spacingLeft=3;spacingRight=3;rotatable=0;labelPosition=right;points=[];portConstraint=eastwest;" parent="8eh1MpgVd8GPuJ81jZMR-28" vertex="1">
          <mxGeometry y="110" width="277" height="20" as="geometry" />
        </mxCell>
        <mxCell id="8eh1MpgVd8GPuJ81jZMR-35" value="+create decklist()&lt;br&gt;+ submit decklist()&lt;br&gt;&lt;div&gt;&lt;span&gt;+edit decklist()&lt;/span&gt;&lt;/div&gt;&lt;div&gt;&lt;span&gt;+delete decklist()&lt;/span&gt;&lt;/div&gt;" style="text;html=1;strokeColor=none;fillColor=none;align=left;verticalAlign=middle;whiteSpace=wrap;rounded=0;" parent="8eh1MpgVd8GPuJ81jZMR-28" vertex="1">
          <mxGeometry y="130" width="277" height="120" as="geometry" />
        </mxCell>
        <mxCell id="8eh1MpgVd8GPuJ81jZMR-36" value="" style="shape=flexArrow;endArrow=classic;startArrow=classic;html=1;exitX=0.5;exitY=0;exitDx=0;exitDy=0;entryX=0.5;entryY=1;entryDx=0;entryDy=0;" parent="WIyWlLk6GJQsqaUBKTNV-1" source="8eh1MpgVd8GPuJ81jZMR-28" target="8eh1MpgVd8GPuJ81jZMR-26" edge="1">
          <mxGeometry width="100" height="100" relative="1" as="geometry">
            <mxPoint x="-265" y="470" as="sourcePoint" />
            <mxPoint x="-165" y="370" as="targetPoint" />
          </mxGeometry>
        </mxCell>
        <mxCell id="8eh1MpgVd8GPuJ81jZMR-37" value="Event" style="swimlane;fontStyle=2;align=center;verticalAlign=top;childLayout=stackLayout;horizontal=1;startSize=26;horizontalStack=0;resizeParent=1;resizeLast=0;collapsible=1;marginBottom=0;rounded=0;shadow=0;strokeWidth=1;" parent="WIyWlLk6GJQsqaUBKTNV-1" vertex="1">
          <mxGeometry x="25" y="490" width="260" height="250" as="geometry">
            <mxRectangle x="230" y="140" width="160" height="26" as="alternateBounds" />
          </mxGeometry>
        </mxCell>
        <mxCell id="8eh1MpgVd8GPuJ81jZMR-38" value="-event_id: int&#xa;- dateCreated: int&#xa;- Customer: [customerId, decklist_id, paid(bool)]" style="text;align=left;verticalAlign=top;spacingLeft=4;spacingRight=4;overflow=hidden;rotatable=0;points=[[0,0.5],[1,0.5]];portConstraint=eastwest;" parent="8eh1MpgVd8GPuJ81jZMR-37" vertex="1">
          <mxGeometry y="26" width="260" height="84" as="geometry" />
        </mxCell>
        <mxCell id="8eh1MpgVd8GPuJ81jZMR-39" value="" style="line;html=1;strokeWidth=1;align=left;verticalAlign=middle;spacingTop=-1;spacingLeft=3;spacingRight=3;rotatable=0;labelPosition=right;points=[];portConstraint=eastwest;" parent="8eh1MpgVd8GPuJ81jZMR-37" vertex="1">
          <mxGeometry y="110" width="260" height="20" as="geometry" />
        </mxCell>
        <mxCell id="8eh1MpgVd8GPuJ81jZMR-40" value="#createEvent()&lt;br&gt;#editEvent()&lt;br&gt;#deleteEvent()&lt;br&gt;#publishEvent()" style="text;html=1;strokeColor=none;fillColor=none;align=left;verticalAlign=middle;whiteSpace=wrap;rounded=0;" parent="8eh1MpgVd8GPuJ81jZMR-37" vertex="1">
          <mxGeometry y="130" width="260" height="120" as="geometry" />
        </mxCell>
        <mxCell id="8eh1MpgVd8GPuJ81jZMR-42" value="1" style="text;html=1;strokeColor=none;fillColor=none;align=center;verticalAlign=middle;whiteSpace=wrap;rounded=0;" parent="WIyWlLk6GJQsqaUBKTNV-1" vertex="1">
          <mxGeometry x="-145" y="370" width="40" height="20" as="geometry" />
        </mxCell>
        <mxCell id="8eh1MpgVd8GPuJ81jZMR-43" value="0..*" style="text;html=1;strokeColor=none;fillColor=none;align=center;verticalAlign=middle;whiteSpace=wrap;rounded=0;" parent="WIyWlLk6GJQsqaUBKTNV-1" vertex="1">
          <mxGeometry x="-220" y="434" width="40" height="20" as="geometry" />
        </mxCell>
        <mxCell id="8eh1MpgVd8GPuJ81jZMR-44" value="" style="shape=flexArrow;endArrow=classic;startArrow=classic;html=1;exitX=0.005;exitY=0.4;exitDx=0;exitDy=0;exitPerimeter=0;entryX=0.996;entryY=0.172;entryDx=0;entryDy=0;entryPerimeter=0;" parent="WIyWlLk6GJQsqaUBKTNV-1" source="8eh1MpgVd8GPuJ81jZMR-39" target="8eh1MpgVd8GPuJ81jZMR-35" edge="1">
          <mxGeometry width="100" height="100" relative="1" as="geometry">
            <mxPoint x="-29.999999999999787" y="625.52" as="sourcePoint" />
            <mxPoint x="-29.510000000000005" y="560" as="targetPoint" />
          </mxGeometry>
        </mxCell>
        <mxCell id="8eh1MpgVd8GPuJ81jZMR-45" value="0..*" style="text;html=1;strokeColor=none;fillColor=none;align=center;verticalAlign=middle;whiteSpace=wrap;rounded=0;" parent="WIyWlLk6GJQsqaUBKTNV-1" vertex="1">
          <mxGeometry x="-10" y="565" width="40" height="20" as="geometry" />
        </mxCell>
        <mxCell id="8eh1MpgVd8GPuJ81jZMR-46" value="1" style="text;html=1;strokeColor=none;fillColor=none;align=center;verticalAlign=middle;whiteSpace=wrap;rounded=0;" parent="WIyWlLk6GJQsqaUBKTNV-1" vertex="1">
          <mxGeometry x="-110" y="560" width="40" height="20" as="geometry" />
        </mxCell>
        <mxCell id="8eh1MpgVd8GPuJ81jZMR-47" value="Card" style="swimlane;fontStyle=2;align=center;verticalAlign=top;childLayout=stackLayout;horizontal=1;startSize=26;horizontalStack=0;resizeParent=1;resizeLast=0;collapsible=1;marginBottom=0;rounded=0;shadow=0;strokeWidth=1;fillColor=#fff2cc;strokeColor=#d6b656;" parent="WIyWlLk6GJQsqaUBKTNV-1" vertex="1">
          <mxGeometry x="540" y="450" width="400" height="300" as="geometry">
            <mxRectangle x="230" y="140" width="160" height="26" as="alternateBounds" />
          </mxGeometry>
        </mxCell>
        <mxCell id="8eh1MpgVd8GPuJ81jZMR-48" value="- cardGame: string&#xa;    - table: table&#xa;    - colors: arr&#xa;    - mana_cost: string&#xa;    - cmc: int,&#xa;- card_id: string&#xa;- set_id: string&#xa;- oracleText: string&#xa;- oracle_id: string (=product_id for MTG Cards)&#xa;- type_line: string&#xa;- imageURI obj: {small(string): url(string) ; medium(string): url(string)}&#xa;- stock: int&#xa;- price: int" style="text;align=left;verticalAlign=top;spacingLeft=4;spacingRight=4;overflow=hidden;rotatable=0;points=[[0,0.5],[1,0.5]];portConstraint=eastwest;fillColor=#fff2cc;strokeColor=#d6b656;" parent="8eh1MpgVd8GPuJ81jZMR-47" vertex="1">
          <mxGeometry y="26" width="400" height="194" as="geometry" />
        </mxCell>
        <mxCell id="8eh1MpgVd8GPuJ81jZMR-49" value="" style="line;html=1;strokeWidth=1;align=left;verticalAlign=middle;spacingTop=-1;spacingLeft=3;spacingRight=3;rotatable=0;labelPosition=right;points=[];portConstraint=eastwest;fillColor=#fff2cc;strokeColor=#d6b656;" parent="8eh1MpgVd8GPuJ81jZMR-47" vertex="1">
          <mxGeometry y="220" width="400" height="20" as="geometry" />
        </mxCell>
        <mxCell id="8eh1MpgVd8GPuJ81jZMR-50" value="# editCard()&lt;br&gt;" style="text;html=1;strokeColor=#d6b656;fillColor=#fff2cc;align=left;verticalAlign=middle;whiteSpace=wrap;rounded=0;" parent="8eh1MpgVd8GPuJ81jZMR-47" vertex="1">
          <mxGeometry y="240" width="400" height="40" as="geometry" />
        </mxCell>
        <mxCell id="8eh1MpgVd8GPuJ81jZMR-51" value="Product" style="swimlane;fontStyle=2;align=center;verticalAlign=top;childLayout=stackLayout;horizontal=1;startSize=26;horizontalStack=0;resizeParent=1;resizeLast=0;collapsible=1;marginBottom=0;rounded=0;shadow=0;strokeWidth=1;fillColor=#fff2cc;strokeColor=#d6b656;" parent="WIyWlLk6GJQsqaUBKTNV-1" vertex="1">
          <mxGeometry x="680" y="150" width="260" height="210" as="geometry">
            <mxRectangle x="230" y="140" width="160" height="26" as="alternateBounds" />
          </mxGeometry>
        </mxCell>
        <mxCell id="8eh1MpgVd8GPuJ81jZMR-52" value="- product_id: string&#xa;  (for Mtg Card = oracle_id from Scryfall)&#xa;- card_id: string (for cards)&#xa;- productname: string&#xa;- stock:int&#xa;- price:int &#xa;- productCatagory: string" style="text;align=left;verticalAlign=top;spacingLeft=4;spacingRight=4;overflow=hidden;rotatable=0;points=[[0,0.5],[1,0.5]];portConstraint=eastwest;fillColor=#fff2cc;strokeColor=#d6b656;" parent="8eh1MpgVd8GPuJ81jZMR-51" vertex="1">
          <mxGeometry y="26" width="260" height="104" as="geometry" />
        </mxCell>
        <mxCell id="8eh1MpgVd8GPuJ81jZMR-53" value="" style="line;html=1;strokeWidth=1;align=left;verticalAlign=middle;spacingTop=-1;spacingLeft=3;spacingRight=3;rotatable=0;labelPosition=right;points=[];portConstraint=eastwest;fillColor=#fff2cc;strokeColor=#d6b656;" parent="8eh1MpgVd8GPuJ81jZMR-51" vertex="1">
          <mxGeometry y="130" width="260" height="10" as="geometry" />
        </mxCell>
        <mxCell id="8eh1MpgVd8GPuJ81jZMR-54" value="#editProduct()" style="text;html=1;strokeColor=#d6b656;fillColor=#fff2cc;align=left;verticalAlign=middle;whiteSpace=wrap;rounded=0;" parent="8eh1MpgVd8GPuJ81jZMR-51" vertex="1">
          <mxGeometry y="140" width="260" height="70" as="geometry" />
        </mxCell>
        <mxCell id="8eh1MpgVd8GPuJ81jZMR-59" value="Employee" style="swimlane;fontStyle=2;align=center;verticalAlign=top;childLayout=stackLayout;horizontal=1;startSize=26;horizontalStack=0;resizeParent=1;resizeLast=0;collapsible=1;marginBottom=0;rounded=0;shadow=0;strokeWidth=1;" parent="WIyWlLk6GJQsqaUBKTNV-1" vertex="1">
          <mxGeometry x="190" y="149" width="156" height="211" as="geometry">
            <mxRectangle x="230" y="140" width="160" height="26" as="alternateBounds" />
          </mxGeometry>
        </mxCell>
        <mxCell id="8eh1MpgVd8GPuJ81jZMR-63" value="-employeeName: string&lt;br&gt;-email: string" style="text;html=1;strokeColor=none;fillColor=none;align=left;verticalAlign=middle;whiteSpace=wrap;rounded=0;" parent="8eh1MpgVd8GPuJ81jZMR-59" vertex="1">
          <mxGeometry y="26" width="156" height="90" as="geometry" />
        </mxCell>
        <mxCell id="8eh1MpgVd8GPuJ81jZMR-60" value="" style="line;html=1;strokeWidth=1;align=left;verticalAlign=middle;spacingTop=-1;spacingLeft=3;spacingRight=3;rotatable=0;labelPosition=right;points=[];portConstraint=eastwest;" parent="8eh1MpgVd8GPuJ81jZMR-59" vertex="1">
          <mxGeometry y="116" width="156" height="14" as="geometry" />
        </mxCell>
        <mxCell id="8eh1MpgVd8GPuJ81jZMR-69" value="Auth for all protected methods" style="text;html=1;strokeColor=none;fillColor=none;align=center;verticalAlign=middle;whiteSpace=wrap;rounded=0;" parent="8eh1MpgVd8GPuJ81jZMR-59" vertex="1">
          <mxGeometry y="130" width="156" height="40" as="geometry" />
        </mxCell>
        <mxCell id="8eh1MpgVd8GPuJ81jZMR-61" value="Admin" style="swimlane;fontStyle=2;align=center;verticalAlign=top;childLayout=stackLayout;horizontal=1;startSize=26;horizontalStack=0;resizeParent=1;resizeLast=0;collapsible=1;marginBottom=0;rounded=0;shadow=0;strokeWidth=1;" parent="WIyWlLk6GJQsqaUBKTNV-1" vertex="1">
          <mxGeometry x="410" y="150" width="150" height="210" as="geometry">
            <mxRectangle x="230" y="140" width="160" height="26" as="alternateBounds" />
          </mxGeometry>
        </mxCell>
        <mxCell id="8eh1MpgVd8GPuJ81jZMR-70" value="&lt;div style=&quot;&quot;&gt;&lt;span&gt;- adminName: string&lt;/span&gt;&lt;/div&gt;" style="text;html=1;strokeColor=none;fillColor=none;align=left;verticalAlign=middle;whiteSpace=wrap;rounded=0;" parent="8eh1MpgVd8GPuJ81jZMR-61" vertex="1">
          <mxGeometry y="26" width="150" height="60" as="geometry" />
        </mxCell>
        <mxCell id="8eh1MpgVd8GPuJ81jZMR-62" value="" style="line;html=1;strokeWidth=1;align=left;verticalAlign=middle;spacingTop=-1;spacingLeft=3;spacingRight=3;rotatable=0;labelPosition=right;points=[];portConstraint=eastwest;" parent="8eh1MpgVd8GPuJ81jZMR-61" vertex="1">
          <mxGeometry y="86" width="150" height="74" as="geometry" />
        </mxCell>
        <mxCell id="8eh1MpgVd8GPuJ81jZMR-72" style="edgeStyle=orthogonalEdgeStyle;rounded=0;orthogonalLoop=1;jettySize=auto;html=1;exitX=0.5;exitY=1;exitDx=0;exitDy=0;" parent="8eh1MpgVd8GPuJ81jZMR-61" source="8eh1MpgVd8GPuJ81jZMR-71" target="8eh1MpgVd8GPuJ81jZMR-71" edge="1">
          <mxGeometry relative="1" as="geometry" />
        </mxCell>
        <mxCell id="8eh1MpgVd8GPuJ81jZMR-71" value="+ CRUD employees()&lt;br&gt;+ readLogs()" style="text;html=1;strokeColor=none;fillColor=none;align=left;verticalAlign=middle;whiteSpace=wrap;rounded=0;" parent="8eh1MpgVd8GPuJ81jZMR-61" vertex="1">
          <mxGeometry y="160" width="150" height="50" as="geometry" />
        </mxCell>
        <mxCell id="8eh1MpgVd8GPuJ81jZMR-73" value="Order" style="swimlane;fontStyle=2;align=center;verticalAlign=top;childLayout=stackLayout;horizontal=1;startSize=26;horizontalStack=0;resizeParent=1;resizeLast=0;collapsible=1;marginBottom=0;rounded=0;shadow=0;strokeWidth=1;" parent="WIyWlLk6GJQsqaUBKTNV-1" vertex="1">
          <mxGeometry x="-620" y="161" width="260" height="210" as="geometry">
            <mxRectangle x="230" y="140" width="160" height="26" as="alternateBounds" />
          </mxGeometry>
        </mxCell>
        <mxCell id="8eh1MpgVd8GPuJ81jZMR-74" value="-order_id: string&#xa;- dateCreated: string&#xa;- productsAdded: obj {string(id): quant (int)}" style="text;align=left;verticalAlign=top;spacingLeft=4;spacingRight=4;overflow=hidden;rotatable=0;points=[[0,0.5],[1,0.5]];portConstraint=eastwest;" parent="8eh1MpgVd8GPuJ81jZMR-73" vertex="1">
          <mxGeometry y="26" width="260" height="84" as="geometry" />
        </mxCell>
        <mxCell id="8eh1MpgVd8GPuJ81jZMR-75" value="" style="line;html=1;strokeWidth=1;align=left;verticalAlign=middle;spacingTop=-1;spacingLeft=3;spacingRight=3;rotatable=0;labelPosition=right;points=[];portConstraint=eastwest;" parent="8eh1MpgVd8GPuJ81jZMR-73" vertex="1">
          <mxGeometry y="110" width="260" height="20" as="geometry" />
        </mxCell>
        <mxCell id="8eh1MpgVd8GPuJ81jZMR-76" value="#approveOrder()&lt;br&gt;+ createOrder()&lt;br&gt;+ editOrder()&lt;br&gt;+ deleteOrder()&lt;br&gt;+ checkout()" style="text;html=1;strokeColor=none;fillColor=none;align=left;verticalAlign=middle;whiteSpace=wrap;rounded=0;" parent="8eh1MpgVd8GPuJ81jZMR-73" vertex="1">
          <mxGeometry y="130" width="260" height="80" as="geometry" />
        </mxCell>
        <mxCell id="8eh1MpgVd8GPuJ81jZMR-79" value="" style="shape=flexArrow;endArrow=classic;startArrow=classic;html=1;entryX=1;entryY=0.75;entryDx=0;entryDy=0;" parent="WIyWlLk6GJQsqaUBKTNV-1" source="8eh1MpgVd8GPuJ81jZMR-74" target="8eh1MpgVd8GPuJ81jZMR-80" edge="1">
          <mxGeometry width="100" height="100" relative="1" as="geometry">
            <mxPoint x="-360" y="356" as="sourcePoint" />
            <mxPoint x="-260" y="256" as="targetPoint" />
          </mxGeometry>
        </mxCell>
        <mxCell id="8eh1MpgVd8GPuJ81jZMR-80" value="1" style="text;html=1;strokeColor=none;fillColor=none;align=center;verticalAlign=middle;whiteSpace=wrap;rounded=0;" parent="WIyWlLk6GJQsqaUBKTNV-1" vertex="1">
          <mxGeometry x="-295" y="220" width="40" height="20" as="geometry" />
        </mxCell>
        <mxCell id="8eh1MpgVd8GPuJ81jZMR-81" value="0..*" style="text;html=1;strokeColor=none;fillColor=none;align=center;verticalAlign=middle;whiteSpace=wrap;rounded=0;" parent="WIyWlLk6GJQsqaUBKTNV-1" vertex="1">
          <mxGeometry x="-360" y="220" width="40" height="20" as="geometry" />
        </mxCell>
        <mxCell id="8eh1MpgVd8GPuJ81jZMR-84" style="edgeStyle=orthogonalEdgeStyle;rounded=0;orthogonalLoop=1;jettySize=auto;html=1;exitX=0;exitY=0.5;exitDx=0;exitDy=0;entryX=1;entryY=0.5;entryDx=0;entryDy=0;" parent="WIyWlLk6GJQsqaUBKTNV-1" source="8eh1MpgVd8GPuJ81jZMR-63" target="8eh1MpgVd8GPuJ81jZMR-24" edge="1">
          <mxGeometry relative="1" as="geometry" />
        </mxCell>
        <mxCell id="8eh1MpgVd8GPuJ81jZMR-85" style="edgeStyle=orthogonalEdgeStyle;rounded=0;orthogonalLoop=1;jettySize=auto;html=1;exitX=0;exitY=1;exitDx=0;exitDy=0;entryX=1;entryY=0.5;entryDx=0;entryDy=0;" parent="WIyWlLk6GJQsqaUBKTNV-1" source="8eh1MpgVd8GPuJ81jZMR-70" target="8eh1MpgVd8GPuJ81jZMR-63" edge="1">
          <mxGeometry relative="1" as="geometry" />
        </mxCell>
        <mxCell id="itvH167N9FgeQitO1QKb-0" value="#means role specific permissions&amp;nbsp;" style="text;html=1;strokeColor=none;fillColor=none;align=center;verticalAlign=middle;whiteSpace=wrap;rounded=0;fontSize=16;" parent="WIyWlLk6GJQsqaUBKTNV-1" vertex="1">
          <mxGeometry x="-647.5" y="415" width="315" height="20" as="geometry" />
        </mxCell>
        <mxCell id="WiYr9rJhbM02wIFo_cEo-1" value="" style="rounded=0;whiteSpace=wrap;html=1;" vertex="1" parent="WIyWlLk6GJQsqaUBKTNV-1">
          <mxGeometry x="-1640" y="40" width="430" height="250" as="geometry" />
        </mxCell>
        <mxCell id="WiYr9rJhbM02wIFo_cEo-2" value="" style="rounded=0;whiteSpace=wrap;html=1;" vertex="1" parent="WIyWlLk6GJQsqaUBKTNV-1">
          <mxGeometry x="-1330" y="40" width="120" height="60" as="geometry" />
        </mxCell>
        <mxCell id="WiYr9rJhbM02wIFo_cEo-3" value="" style="rounded=0;whiteSpace=wrap;html=1;" vertex="1" parent="WIyWlLk6GJQsqaUBKTNV-1">
          <mxGeometry x="-1490" y="135" width="120" height="60" as="geometry" />
        </mxCell>
        <mxCell id="WiYr9rJhbM02wIFo_cEo-4" value="" style="rounded=0;whiteSpace=wrap;html=1;" vertex="1" parent="WIyWlLk6GJQsqaUBKTNV-1">
          <mxGeometry x="-1160" y="40" width="430" height="250" as="geometry" />
        </mxCell>
        <mxCell id="WiYr9rJhbM02wIFo_cEo-5" value="" style="rounded=0;whiteSpace=wrap;html=1;" vertex="1" parent="WIyWlLk6GJQsqaUBKTNV-1">
          <mxGeometry x="-850" y="40" width="120" height="60" as="geometry" />
        </mxCell>
        <mxCell id="WiYr9rJhbM02wIFo_cEo-6" value="" style="rounded=0;whiteSpace=wrap;html=1;" vertex="1" parent="WIyWlLk6GJQsqaUBKTNV-1">
          <mxGeometry x="-1130" y="60" width="240" height="200" as="geometry" />
        </mxCell>
        <mxCell id="WiYr9rJhbM02wIFo_cEo-7" value="" style="rounded=0;whiteSpace=wrap;html=1;" vertex="1" parent="WIyWlLk6GJQsqaUBKTNV-1">
          <mxGeometry x="-1160" y="340" width="430" height="250" as="geometry" />
        </mxCell>
        <mxCell id="WiYr9rJhbM02wIFo_cEo-8" value="" style="rounded=0;whiteSpace=wrap;html=1;" vertex="1" parent="WIyWlLk6GJQsqaUBKTNV-1">
          <mxGeometry x="-850" y="340" width="120" height="60" as="geometry" />
        </mxCell>
        <mxCell id="WiYr9rJhbM02wIFo_cEo-9" value="" style="rounded=0;whiteSpace=wrap;html=1;" vertex="1" parent="WIyWlLk6GJQsqaUBKTNV-1">
          <mxGeometry x="-1120" y="375" width="250" height="175" as="geometry" />
        </mxCell>
        <mxCell id="WiYr9rJhbM02wIFo_cEo-10" value="LOGIN/LOGOUT" style="text;html=1;strokeColor=none;fillColor=none;align=center;verticalAlign=middle;whiteSpace=wrap;rounded=0;" vertex="1" parent="WIyWlLk6GJQsqaUBKTNV-1">
          <mxGeometry x="-1315" y="40" width="85" height="59" as="geometry" />
        </mxCell>
        <mxCell id="WiYr9rJhbM02wIFo_cEo-11" value="SEARCH BAR" style="text;html=1;strokeColor=none;fillColor=none;align=center;verticalAlign=middle;whiteSpace=wrap;rounded=0;" vertex="1" parent="WIyWlLk6GJQsqaUBKTNV-1">
          <mxGeometry x="-1472.5" y="135" width="85" height="59" as="geometry" />
        </mxCell>
        <mxCell id="WiYr9rJhbM02wIFo_cEo-12" value="INDEX OF QUERIED CARDS" style="text;html=1;strokeColor=none;fillColor=none;align=center;verticalAlign=middle;whiteSpace=wrap;rounded=0;" vertex="1" parent="WIyWlLk6GJQsqaUBKTNV-1">
          <mxGeometry x="-1110" y="76" width="150" height="124" as="geometry" />
        </mxCell>
        <mxCell id="WiYr9rJhbM02wIFo_cEo-13" value="CARD DETAILS WITH CRUD FORM" style="text;html=1;strokeColor=none;fillColor=none;align=center;verticalAlign=middle;whiteSpace=wrap;rounded=0;" vertex="1" parent="WIyWlLk6GJQsqaUBKTNV-1">
          <mxGeometry x="-1070" y="400" width="150" height="124" as="geometry" />
        </mxCell>
        <mxCell id="WiYr9rJhbM02wIFo_cEo-15" value="" style="rounded=0;whiteSpace=wrap;html=1;" vertex="1" parent="WIyWlLk6GJQsqaUBKTNV-1">
          <mxGeometry x="-1630" y="40" width="290" height="30" as="geometry" />
        </mxCell>
        <mxCell id="WiYr9rJhbM02wIFo_cEo-16" value="NAVBAR" style="text;html=1;strokeColor=none;fillColor=none;align=center;verticalAlign=middle;whiteSpace=wrap;rounded=0;" vertex="1" parent="WIyWlLk6GJQsqaUBKTNV-1">
          <mxGeometry x="-1560" y="41" width="160" height="29" as="geometry" />
        </mxCell>
        <mxCell id="WiYr9rJhbM02wIFo_cEo-18" value="" style="rounded=0;whiteSpace=wrap;html=1;" vertex="1" parent="WIyWlLk6GJQsqaUBKTNV-1">
          <mxGeometry x="-1140" y="41" width="290" height="30" as="geometry" />
        </mxCell>
        <mxCell id="WiYr9rJhbM02wIFo_cEo-19" value="" style="rounded=0;whiteSpace=wrap;html=1;" vertex="1" parent="WIyWlLk6GJQsqaUBKTNV-1">
          <mxGeometry x="-1150" y="340" width="290" height="30" as="geometry" />
        </mxCell>
        <mxCell id="WiYr9rJhbM02wIFo_cEo-20" value="NAVBAR" style="text;html=1;strokeColor=none;fillColor=none;align=center;verticalAlign=middle;whiteSpace=wrap;rounded=0;" vertex="1" parent="WIyWlLk6GJQsqaUBKTNV-1">
          <mxGeometry x="-1072.5" y="346" width="160" height="29" as="geometry" />
        </mxCell>
        <mxCell id="WiYr9rJhbM02wIFo_cEo-21" value="LOGIN/LOGOUT" style="text;html=1;strokeColor=none;fillColor=none;align=center;verticalAlign=middle;whiteSpace=wrap;rounded=0;" vertex="1" parent="WIyWlLk6GJQsqaUBKTNV-1">
          <mxGeometry x="-855" y="40" width="135" height="60" as="geometry" />
        </mxCell>
        <mxCell id="WiYr9rJhbM02wIFo_cEo-22" value="LOGIN/LOGOUT" style="text;html=1;strokeColor=none;fillColor=none;align=center;verticalAlign=middle;whiteSpace=wrap;rounded=0;" vertex="1" parent="WIyWlLk6GJQsqaUBKTNV-1">
          <mxGeometry x="-867.5" y="341" width="127.5" height="59" as="geometry" />
        </mxCell>
        <mxCell id="WiYr9rJhbM02wIFo_cEo-23" value="NAVBAR" style="text;html=1;strokeColor=none;fillColor=none;align=center;verticalAlign=middle;whiteSpace=wrap;rounded=0;" vertex="1" parent="WIyWlLk6GJQsqaUBKTNV-1">
          <mxGeometry x="-1110" y="47" width="160" height="29" as="geometry" />
        </mxCell>
      </root>
    </mxGraphModel>
  </diagram>
</mxfile>
